<svg width="100" height="70" viewBox="0 0 100 70" fill="none" xmlns="http://www.w3.org/2000/svg">
<path d="M75.7032 8.22314L53.4165 24.9587L57.5608 15.0959L75.7032 8.22314Z" fill="#E17726" stroke="#E17726" stroke-linecap="round" stroke-linejoin="round"/>
<path d="M24.2964 8.22314L46.3847 25.1149L42.4388 15.0959L24.2964 8.22314Z" fill="#E27625" stroke="#E27625" stroke-linecap="round" stroke-linejoin="round"/>
<path d="M67.6794 47.0272L61.7495 56.2206L74.447 59.7686L78.0843 47.228L67.6794 47.0272Z" fill="#E27625" stroke="#E27625" stroke-linecap="round" stroke-linejoin="round"/>
<path d="M21.9375 47.228L25.5528 59.7686L38.2282 56.2206L32.3203 47.0272L21.9375 47.228Z" fill="#E27625" stroke="#E27625" stroke-linecap="round" stroke-linejoin="round"/>
<path d="M37.5447 31.4968L34.0176 36.8968L46.5828 37.4769L46.164 23.7538L37.5447 31.4968Z" fill="#E27625" stroke="#E27625" stroke-linecap="round" stroke-linejoin="round"/>
<path d="M62.4546 31.4967L53.7031 23.5975L53.4165 37.4769L65.9817 36.8967L62.4546 31.4967Z" fill="#E27625" stroke="#E27625" stroke-linecap="round" stroke-linejoin="round"/>
<path d="M38.228 56.2207L45.8333 52.4942L39.2862 47.3174L38.228 56.2207Z" fill="#E27625" stroke="#E27625" stroke-linecap="round" stroke-linejoin="round"/>
<path d="M54.166 52.4942L61.7492 56.2207L60.7132 47.3174L54.166 52.4942Z" fill="#E27625" stroke="#E27625" stroke-linecap="round" stroke-linejoin="round"/>
<path d="M61.7492 56.2207L54.166 52.4943L54.7833 57.4926L54.7171 59.6124L61.7492 56.2207Z" fill="#D5BFB2" stroke="#D5BFB2" stroke-linecap="round" stroke-linejoin="round"/>
<path d="M38.228 56.2207L45.2822 59.6124L45.2381 57.4926L45.8333 52.4943L38.228 56.2207Z" fill="#D5BFB2" stroke="#D5BFB2" stroke-linecap="round" stroke-linejoin="round"/>
<path d="M45.4145 44.0149L39.1099 42.1405L43.5628 40.0653L45.4145 44.0149Z" fill="#233447" stroke="#233447" stroke-linecap="round" stroke-linejoin="round"/>
<path d="M54.585 44.0149L56.4367 40.0653L60.9117 42.1405L54.585 44.0149Z" fill="#233447" stroke="#233447" stroke-linecap="round" stroke-linejoin="round"/>
<path d="M38.2282 56.2207L39.3304 47.0273L32.3203 47.2282L38.2282 56.2207Z" fill="#CC6228" stroke="#CC6228" stroke-linecap="round" stroke-linejoin="round"/>
<path d="M60.6694 47.0273L61.7496 56.2207L67.6795 47.2282L60.6694 47.0273Z" fill="#CC6228" stroke="#CC6228" stroke-linecap="round" stroke-linejoin="round"/>
<path d="M65.9817 36.8967L53.4165 37.4769L54.5848 44.0149L56.4366 40.0653L60.9115 42.1405L65.9817 36.8967Z" fill="#CC6228" stroke="#CC6228" stroke-linecap="round" stroke-linejoin="round"/>
<path d="M39.1098 42.1405L43.5627 40.0653L45.4145 44.0149L46.5828 37.4769L34.0176 36.8967L39.1098 42.1405Z" fill="#CC6228" stroke="#CC6228" stroke-linecap="round" stroke-linejoin="round"/>
<path d="M34.0176 36.8967L39.2861 47.3174L39.1098 42.1405L34.0176 36.8967Z" fill="#E27525" stroke="#E27525" stroke-linecap="round" stroke-linejoin="round"/>
<path d="M60.9118 42.1405L60.7134 47.3174L65.982 36.8967L60.9118 42.1405Z" fill="#E27525" stroke="#E27525" stroke-linecap="round" stroke-linejoin="round"/>
<path d="M46.5829 37.4769L45.4146 44.0149L46.8915 51.7356L47.2222 41.5604L46.5829 37.4769Z" fill="#E27525" stroke="#E27525" stroke-linecap="round" stroke-linejoin="round"/>
<path d="M53.4166 37.4769L52.7993 41.5381L53.1079 51.7356L54.5849 44.0149L53.4166 37.4769Z" fill="#E27525" stroke="#E27525" stroke-linecap="round" stroke-linejoin="round"/>
<path d="M54.5849 44.0149L53.1079 51.7355L54.166 52.4942L60.7132 47.3174L60.9116 42.1405L54.5849 44.0149Z" fill="#F5841F" stroke="#F5841F" stroke-linecap="round" stroke-linejoin="round"/>
<path d="M39.1099 42.1405L39.2862 47.3174L45.8334 52.4942L46.8915 51.7355L45.4145 44.0149L39.1099 42.1405Z" fill="#F5841F" stroke="#F5841F" stroke-linecap="round" stroke-linejoin="round"/>
<path d="M54.7171 59.6124L54.7832 57.4926L54.2101 57.0017H45.7892L45.2381 57.4926L45.2822 59.6124L38.228 56.2207L40.697 58.2736L45.701 61.7769H54.2762L59.3023 58.2736L61.7492 56.2207L54.7171 59.6124Z" fill="#C0AC9D" stroke="#C0AC9D" stroke-linecap="round" stroke-linejoin="round"/>
<path d="M54.1662 52.4943L53.1081 51.7356H46.8916L45.8335 52.4943L45.2383 57.4926L45.7894 57.0017H54.2103L54.7834 57.4926L54.1662 52.4943Z" fill="#161616" stroke="#161616" stroke-linecap="round" stroke-linejoin="round"/>
<path d="M76.6511 26.0521L78.5249 16.8141L75.7032 8.22314L54.166 24.4008L62.4546 31.4967L74.1601 34.9554L76.7393 31.8984L75.615 31.0727L77.4006 29.4215L76.0339 28.3504L77.8195 26.9669L76.6511 26.0521Z" fill="#763E1A" stroke="#763E1A" stroke-linecap="round" stroke-linejoin="round"/>
<path d="M21.4746 16.8141L23.3704 26.0521L22.158 26.9669L23.9656 28.3504L22.5989 29.4215L24.3844 31.0727L23.2602 31.8984L25.8394 34.9554L37.5449 31.4967L45.8335 24.4008L24.2963 8.22314L21.4746 16.8141Z" fill="#763E1A" stroke="#763E1A" stroke-linecap="round" stroke-linejoin="round"/>
<path d="M74.1604 34.9554L62.4549 31.4967L65.982 36.8967L60.7134 47.3174L67.6794 47.2281H78.0842L74.1604 34.9554Z" fill="#F5841F" stroke="#F5841F" stroke-linecap="round" stroke-linejoin="round"/>
<path d="M37.5448 31.4967L25.8393 34.9554L21.9375 47.2281H32.3203L39.2863 47.3174L34.0177 36.8967L37.5448 31.4967Z" fill="#F5841F" stroke="#F5841F" stroke-linecap="round" stroke-linejoin="round"/>
<path d="M53.4165 37.4768L54.166 24.4008L57.5608 15.0958H42.4385L45.8333 24.4008L46.5828 37.4768L46.8694 41.5826L46.8914 51.7355H53.1079L53.1299 41.5826L53.4165 37.4768Z" fill="#F5841F" stroke="#F5841F" stroke-linecap="round" stroke-linejoin="round"/>
</svg>
